<svg width="25" height="24" viewBox="0 0 25 24" fill="none" xmlns="http://www.w3.org/2000/svg">
<g clip-path="url(#clip0_46_106)">
<path d="M5.29136 22.3632L5.29141 22.3629L6.53641 15.2679L6.58269 15.0042L6.3888 14.8195L1.10465 9.78582C1.00915 9.69467 0.979871 9.56316 1.01775 9.43602C1.05539 9.30965 1.14393 9.23306 1.25354 9.21765L1.25428 9.21755L8.60128 8.17354L8.85969 8.13682L8.9773 7.90381L12.2532 1.41345C12.3638 1.19454 12.6406 1.19454 12.7511 1.41345L16.0271 7.90381L16.1447 8.13682L16.4031 8.17354L23.7501 9.21755L23.7508 9.21765C23.8605 9.23306 23.9489 9.30965 23.9863 9.43573C24.024 9.56247 23.9948 9.69389 23.8988 9.78529L23.8985 9.78554L18.6155 14.8195L18.4217 15.0042L18.468 15.2679L19.713 22.3629L19.713 22.3632C19.7381 22.5055 19.6819 22.6214 19.5962 22.6893C19.5125 22.7558 19.4128 22.7699 19.3148 22.7197C19.3147 22.7197 19.3147 22.7197 19.3146 22.7196L12.7284 19.3358L12.4999 19.2183L12.2713 19.3358L5.68973 22.7196C5.59165 22.7699 5.49193 22.7558 5.40812 22.6893C5.32246 22.6214 5.2663 22.5055 5.29136 22.3632Z" stroke="#28A745"/>
</g>
<defs>
<clipPath id="clip0_46_106">
<rect width="24" height="24" fill="white" transform="translate(0.5)"/>
</clipPath>
</defs>
</svg>
