<svg width="24" height="24" viewBox="0 0 24 24" fill="none" xmlns="http://www.w3.org/2000/svg">
<path fill-rule="evenodd" clip-rule="evenodd" d="M19.7829 3.91825C20.1314 3.83565 20.3744 3.75444 20.5735 3.66915C20.8525 3.54961 21.0838 3.40641 21.4493 3.16524C21.7564 2.96255 22.15 2.9449 22.474 3.11928C22.798 3.29366 23.0001 3.6319 23.0001 3.99986C23.0001 5.08079 22.8654 5.96673 22.5536 6.7464C22.2912 7.40221 21.9226 7.93487 21.4817 8.41968C21.2955 11.7828 20.322 14.4239 18.8337 16.4248C17.2911 18.4987 15.2387 19.8268 13.0752 20.5706C10.918 21.3121 8.63871 21.4778 6.59678 21.2267C4.56824 20.9773 2.69312 20.3057 1.38613 19.2892C1.02821 19.0108 0.902389 18.5264 1.07959 18.109C1.25679 17.6916 1.69264 17.4457 2.14152 17.5099C3.42749 17.6936 4.66538 17.4012 5.68328 16.9832C5.4829 16.8742 5.29397 16.7562 5.11836 16.6346C4.19083 15.9925 3.44248 15.1208 3.10565 14.4471C2.96626 14.1684 2.96482 13.8405 3.10176 13.5606C3.1724 13.4161 3.2757 13.293 3.40112 13.1991C2.04685 12.0814 1.50007 10.5355 1.50007 9.49986C1.50007 9.19192 1.64195 8.90115 1.88467 8.71165C1.98673 8.63197 2.10183 8.57392 2.22316 8.53896C2.12182 8.24222 2.04318 7.94241 1.98324 7.65216C1.71747 6.3653 1.74106 4.91284 2.02993 3.75733C2.12878 3.36191 2.45772 3.06606 2.86137 3.00952C3.26501 2.95299 3.66258 3.14709 3.86626 3.50014C4.94377 5.36782 6.93124 6.50943 8.78094 7.18568C9.65058 7.50362 10.456 7.70622 11.0597 7.83078C11.19 6.61019 11.5308 5.6036 12.0539 4.80411C12.744 3.74932 13.7065 3.12525 14.7401 2.84698C16.5228 2.36708 18.5009 2.91382 19.7829 3.91825ZM10.7485 9.80845C10.0634 9.67087 9.12179 9.43976 8.0942 9.06408C6.73698 8.56789 5.16096 7.79418 3.8408 6.59571C3.86443 6.81625 3.89797 7.03492 3.94191 7.24766C4.16316 8.31899 4.57428 8.91899 4.94729 9.10549C5.4035 9.3336 5.61492 9.8685 5.43795 10.3469C5.19835 10.9946 4.56817 11.0477 3.99559 10.9046C4.45611 11.595 5.28385 12.2834 6.66447 12.5135C7.14065 12.5929 7.49216 13.0011 7.49994 13.4838C7.50773 13.9665 7.16957 14.3858 6.69619 14.4805L5.82573 14.6546C5.95889 14.7703 6.10308 14.8838 6.25678 14.9902C6.9537 15.4727 7.65344 15.6808 8.25754 15.5298C8.70999 15.4167 9.18055 15.6313 9.39171 16.0472C9.60286 16.463 9.49854 16.9696 9.14026 17.2681C8.49634 17.8041 7.74433 18.2342 6.99065 18.5911C6.63683 18.7587 6.24142 18.9241 5.81198 19.0697C6.14226 19.1402 6.48594 19.198 6.84086 19.2417C8.61144 19.4594 10.5822 19.3126 12.425 18.6792C14.2615 18.0479 15.959 16.9385 17.229 15.2312C18.4971 13.5262 19.3821 11.1667 19.5008 7.96291C19.5101 7.71067 19.6145 7.47129 19.793 7.29281C20.2426 6.84316 20.6142 6.32777 20.797 5.7143C20.4771 5.81403 20.1169 5.90035 19.6879 5.98237C19.3624 6.04459 19.0273 5.94156 18.793 5.70727C18.0285 4.94274 16.5165 4.43998 15.26 4.77822C14.6687 4.93741 14.1312 5.28203 13.7275 5.89906C13.3154 6.52904 13.0001 7.51045 13.0001 8.9999C13.0001 9.28288 12.8802 9.5526 12.6702 9.74221C12.1722 10.1917 11.3341 9.92603 10.7485 9.80845Z" fill="#F8F9FA"/>
</svg>
