<svg width="101" height="101" viewBox="0 0 101 101" fill="none" xmlns="http://www.w3.org/2000/svg">
<path d="M101 50.5C101 78.3904 78.3904 101 50.5 101C22.6096 101 0 78.3904 0 50.5C0 22.6096 22.6096 0 50.5 0C78.3904 0 101 22.6096 101 50.5Z" fill="#7EC8B5"/>
<path d="M35.8125 27H65.1875C66.7456 27 68.24 27.619 69.3418 28.7207C70.4435 29.8225 71.0625 31.3169 71.0625 32.875V68.125C71.0625 69.6831 70.4435 71.1775 69.3418 72.2793C68.24 73.381 66.7456 74 65.1875 74H35.8125C34.2544 74 32.76 73.381 31.6582 72.2793C30.5565 71.1775 29.9375 69.6831 29.9375 68.125V65.1875H32.875V68.125C32.875 68.9041 33.1845 69.6512 33.7354 70.2021C34.2863 70.753 35.0334 71.0625 35.8125 71.0625H65.1875C65.9666 71.0625 66.7137 70.753 67.2646 70.2021C67.8155 69.6512 68.125 68.9041 68.125 68.125V32.875C68.125 32.0959 67.8155 31.3488 67.2646 30.7979C66.7137 30.247 65.9666 29.9375 65.1875 29.9375H35.8125C35.0334 29.9375 34.2863 30.247 33.7354 30.7979C33.1845 31.3488 32.875 32.0959 32.875 32.875V35.8125H29.9375V32.875C29.9375 31.3169 30.5565 29.8225 31.6582 28.7207C32.76 27.619 34.2544 27 35.8125 27Z" fill="black"/>
<path d="M29.9375 41.6875V40.2188C29.9375 39.8292 30.0922 39.4556 30.3677 39.1802C30.6431 38.9047 31.0167 38.75 31.4062 38.75C31.7958 38.75 32.1694 38.9047 32.4448 39.1802C32.7203 39.4556 32.875 39.8292 32.875 40.2188V41.6875H34.3438C34.7333 41.6875 35.1069 41.8422 35.3823 42.1177C35.6578 42.3931 35.8125 42.7667 35.8125 43.1562C35.8125 43.5458 35.6578 43.9194 35.3823 44.1948C35.1069 44.4703 34.7333 44.625 34.3438 44.625H28.4688C28.0792 44.625 27.7056 44.4703 27.4302 44.1948C27.1547 43.9194 27 43.5458 27 43.1562C27 42.7667 27.1547 42.3931 27.4302 42.1177C27.7056 41.8422 28.0792 41.6875 28.4688 41.6875H29.9375ZM29.9375 50.5V49.0312C29.9375 48.6417 30.0922 48.2681 30.3677 47.9927C30.6431 47.7172 31.0167 47.5625 31.4062 47.5625C31.7958 47.5625 32.1694 47.7172 32.4448 47.9927C32.7203 48.2681 32.875 48.6417 32.875 49.0312V50.5H34.3438C34.7333 50.5 35.1069 50.6547 35.3823 50.9302C35.6578 51.2056 35.8125 51.5792 35.8125 51.9688C35.8125 52.3583 35.6578 52.7319 35.3823 53.0073C35.1069 53.2828 34.7333 53.4375 34.3438 53.4375H28.4688C28.0792 53.4375 27.7056 53.2828 27.4302 53.0073C27.1547 52.7319 27 52.3583 27 51.9688C27 51.5792 27.1547 51.2056 27.4302 50.9302C27.7056 50.6547 28.0792 50.5 28.4688 50.5H29.9375ZM29.9375 59.3125V57.8438C29.9375 57.4542 30.0922 57.0806 30.3677 56.8052C30.6431 56.5297 31.0167 56.375 31.4062 56.375C31.7958 56.375 32.1694 56.5297 32.4448 56.8052C32.7203 57.0806 32.875 57.4542 32.875 57.8438V59.3125H34.3438C34.7333 59.3125 35.1069 59.4672 35.3823 59.7427C35.6578 60.0181 35.8125 60.3917 35.8125 60.7812C35.8125 61.1708 35.6578 61.5444 35.3823 61.8198C35.1069 62.0953 34.7333 62.25 34.3438 62.25H28.4688C28.0792 62.25 27.7056 62.0953 27.4302 61.8198C27.1547 61.5444 27 61.1708 27 60.7812C27 60.3917 27.1547 60.0181 27.4302 59.7427C27.7056 59.4672 28.0792 59.3125 28.4688 59.3125H29.9375Z" fill="black"/>
<path fill-rule="evenodd" clip-rule="evenodd" d="M41.6875 57.8438C41.6875 57.4542 41.8422 57.0806 42.1177 56.8052C42.3931 56.5297 42.7667 56.375 43.1562 56.375H49.0312C49.4208 56.375 49.7944 56.5297 50.0698 56.8052C50.3453 57.0806 50.5 57.4542 50.5 57.8438C50.5 58.2333 50.3453 58.6069 50.0698 58.8823C49.7944 59.1578 49.4208 59.3125 49.0312 59.3125H43.1562C42.7667 59.3125 42.3931 59.1578 42.1177 58.8823C41.8422 58.6069 41.6875 58.2333 41.6875 57.8438ZM41.6875 51.9688C41.6875 51.5792 41.8422 51.2056 42.1177 50.9302C42.3931 50.6547 42.7667 50.5 43.1562 50.5H57.8438C58.2333 50.5 58.6069 50.6547 58.8823 50.9302C59.1578 51.2056 59.3125 51.5792 59.3125 51.9688C59.3125 52.3583 59.1578 52.7319 58.8823 53.0073C58.6069 53.2828 58.2333 53.4375 57.8438 53.4375H43.1562C42.7667 53.4375 42.3931 53.2828 42.1177 53.0073C41.8422 52.7319 41.6875 52.3583 41.6875 51.9688ZM41.6875 46.0938C41.6875 45.7042 41.8422 45.3306 42.1177 45.0552C42.3931 44.7797 42.7667 44.625 43.1562 44.625H57.8438C58.2333 44.625 58.6069 44.7797 58.8823 45.0552C59.1578 45.3306 59.3125 45.7042 59.3125 46.0938C59.3125 46.4833 59.1578 46.8569 58.8823 47.1323C58.6069 47.4078 58.2333 47.5625 57.8438 47.5625H43.1562C42.7667 47.5625 42.3931 47.4078 42.1177 47.1323C41.8422 46.8569 41.6875 46.4833 41.6875 46.0938ZM41.6875 40.2188C41.6875 39.8292 41.8422 39.4556 42.1177 39.1802C42.3931 38.9047 42.7667 38.75 43.1562 38.75H57.8438C58.2333 38.75 58.6069 38.9047 58.8823 39.1802C59.1578 39.4556 59.3125 39.8292 59.3125 40.2188C59.3125 40.6083 59.1578 40.9819 58.8823 41.2573C58.6069 41.5328 58.2333 41.6875 57.8438 41.6875H43.1562C42.7667 41.6875 42.3931 41.5328 42.1177 41.2573C41.8422 40.9819 41.6875 40.6083 41.6875 40.2188Z" fill="black"/>
</svg>
