<svg width="40" height="40" viewBox="0 0 40 40" fill="none" xmlns="http://www.w3.org/2000/svg">
<path d="M0 4C0 1.79086 1.79086 0 4 0H36C38.2091 0 40 1.79086 40 4V36C40 38.2091 38.2091 40 36 40H4C1.79086 40 0 38.2091 0 36V4Z" fill="#28A745"/>
<path d="M20 16.5293L18.71 20.8593H21.32L20 16.5293Z" fill="#FEFCFF"/>
<path d="M20 10C18.0222 10 16.0888 10.5865 14.4443 11.6853C12.7998 12.7841 11.5181 14.3459 10.7612 16.1732C10.0043 18.0004 9.8063 20.0111 10.1922 21.9509C10.578 23.8907 11.5304 25.6725 12.9289 27.0711C14.3275 28.4696 16.1093 29.422 18.0491 29.8079C19.9889 30.1937 21.9996 29.9957 23.8268 29.2388C25.6541 28.4819 27.2159 27.2002 28.3147 25.5557C29.4135 23.9112 30 21.9778 30 20C30 18.6868 29.7413 17.3864 29.2388 16.1732C28.7363 14.9599 27.9997 13.8575 27.0711 12.9289C26.1425 12.0003 25.0401 11.2637 23.8268 10.7612C22.6136 10.2587 21.3132 10 20 10ZM22.55 25L21.82 22.62H18.18L17.45 25H15.17L18.7 15H21.29L24.83 25H22.55Z" fill="#FEFCFF"/>
</svg>
