<svg width="16" height="16" viewBox="0 0 16 16" fill="none" xmlns="http://www.w3.org/2000/svg">
<path fill-rule="evenodd" clip-rule="evenodd" d="M1.64592 4.64689C1.69236 4.60033 1.74754 4.56339 1.80828 4.53818C1.86903 4.51297 1.93415 4.5 1.99992 4.5C2.06568 4.5 2.13081 4.51297 2.19155 4.53818C2.2523 4.56339 2.30747 4.60033 2.35392 4.64689L7.99992 10.2939L13.6459 4.64689C13.6924 4.60041 13.7476 4.56353 13.8083 4.53837C13.8691 4.51321 13.9342 4.50026 13.9999 4.50026C14.0657 4.50026 14.1308 4.51321 14.1915 4.53837C14.2522 4.56353 14.3074 4.60041 14.3539 4.64689C14.4004 4.69338 14.4373 4.74857 14.4624 4.80931C14.4876 4.87005 14.5005 4.93515 14.5005 5.00089C14.5005 5.06664 14.4876 5.13174 14.4624 5.19248C14.4373 5.25322 14.4004 5.30841 14.3539 5.35489L8.35392 11.3549C8.30747 11.4015 8.2523 11.4384 8.19155 11.4636C8.13081 11.4888 8.06568 11.5018 7.99992 11.5018C7.93415 11.5018 7.86903 11.4888 7.80828 11.4636C7.74754 11.4384 7.69236 11.4015 7.64592 11.3549L1.64592 5.35489C1.59935 5.30845 1.56241 5.25327 1.5372 5.19253C1.512 5.13178 1.49902 5.06666 1.49902 5.00089C1.49902 4.93513 1.512 4.87001 1.5372 4.80926C1.56241 4.74851 1.59935 4.69334 1.64592 4.64689Z" fill="#212529"/>
</svg>
