<svg width="40" height="40" viewBox="0 0 40 40" fill="none" xmlns="http://www.w3.org/2000/svg">
<path d="M0 4C0 1.79086 1.79086 0 4 0H36C38.2091 0 40 1.79086 40 4V36C40 38.2091 38.2091 40 36 40H4C1.79086 40 0 38.2091 0 36V4Z" fill="#437CE8"/>
<path d="M19.9999 20.5898H18.6699V23.1998H20.0499C20.5095 23.2398 20.9688 23.1197 21.3499 22.8598C21.4893 22.7349 21.5986 22.58 21.6696 22.4069C21.7406 22.2337 21.7715 22.0467 21.7599 21.8598C21.7599 20.9998 21.1699 20.5898 19.9999 20.5898Z" fill="#FEFCFF"/>
<path d="M21.1499 18.6501C21.2852 18.5471 21.392 18.4113 21.4603 18.2556C21.5285 18.0999 21.5559 17.9293 21.5399 17.7601C21.5525 17.5979 21.5199 17.4354 21.4458 17.2907C21.3717 17.1459 21.2589 17.0246 21.1199 16.9401C20.7053 16.7443 20.2473 16.6582 19.7899 16.6901H18.6699V18.9101H19.8999C20.3327 18.9415 20.7656 18.8514 21.1499 18.6501Z" fill="#FEFCFF"/>
<path d="M20 10C18.0222 10 16.0888 10.5865 14.4443 11.6853C12.7998 12.7841 11.5181 14.3459 10.7612 16.1732C10.0043 18.0004 9.8063 20.0111 10.1922 21.9509C10.578 23.8907 11.5304 25.6725 12.9289 27.0711C14.3275 28.4696 16.1093 29.422 18.0491 29.8079C19.9889 30.1937 21.9996 29.9957 23.8268 29.2388C25.6541 28.4819 27.2159 27.2002 28.3147 25.5557C29.4135 23.9112 30 21.9778 30 20C30 18.6868 29.7413 17.3864 29.2388 16.1732C28.7363 14.9599 27.9997 13.8575 27.0711 12.9289C26.1425 12.0003 25.0401 11.2638 23.8268 10.7612C22.6136 10.2587 21.3132 10 20 10ZM23 24.18C22.2143 24.7294 21.2674 25.0004 20.31 24.95H16.55V15H19.67C20.7326 14.9263 21.7957 15.1369 22.75 15.61C23.0761 15.8082 23.3417 16.092 23.518 16.4304C23.6942 16.7689 23.7745 17.1492 23.75 17.53C23.7609 18.057 23.5993 18.5732 23.29 19C23.162 19.1869 22.9961 19.3449 22.8032 19.4638C22.6103 19.5827 22.3946 19.6597 22.17 19.69V19.76C22.7085 19.8453 23.1964 20.1267 23.54 20.55C23.8435 20.991 24.0041 21.5147 24 22.05C24.0183 22.4595 23.9369 22.8673 23.7627 23.2383C23.5885 23.6094 23.3268 23.9325 23 24.18Z" fill="#FEFCFF"/>
</svg>
