<svg width="24" height="25" viewBox="0 0 24 25" fill="currentColor" xmlns="http://www.w3.org/2000/svg">
<path fill-rule="evenodd" clip-rule="evenodd" d="M3 20.75V11H4.5V20.75C4.5 20.9489 4.57902 21.1397 4.71967 21.2803C4.86032 21.421 5.05109 21.5 5.25 21.5H18.75C18.9489 21.5 19.1397 21.421 19.2803 21.2803C19.421 21.1397 19.5 20.9489 19.5 20.75V11H21V20.75C21 21.3467 20.7629 21.919 20.341 22.341C19.919 22.7629 19.3467 23 18.75 23H5.25C4.65326 23 4.08097 22.7629 3.65901 22.341C3.23705 21.919 3 21.3467 3 20.75ZM19.5 4.25V9.5L16.5 6.5V4.25C16.5 4.05109 16.579 3.86032 16.7197 3.71967C16.8603 3.57902 17.0511 3.5 17.25 3.5H18.75C18.9489 3.5 19.1397 3.57902 19.2803 3.71967C19.421 3.86032 19.5 4.05109 19.5 4.25Z" fill="currentColor"/>
<path fill-rule="evenodd" clip-rule="evenodd" d="M10.9404 2.74973C11.2217 2.46852 11.6032 2.31055 12.0009 2.31055C12.3987 2.31055 12.7802 2.46852 13.0614 2.74973L23.0319 12.7187C23.1728 12.8596 23.2519 13.0506 23.2519 13.2497C23.2519 13.4489 23.1728 13.6399 23.0319 13.7807C22.8911 13.9216 22.7001 14.0007 22.5009 14.0007C22.3018 14.0007 22.1108 13.9216 21.9699 13.7807L12.0009 3.81023L2.03195 13.7807C1.89112 13.9216 1.70011 14.0007 1.50095 14.0007C1.30178 14.0007 1.11078 13.9216 0.969947 13.7807C0.829117 13.6399 0.75 13.4489 0.75 13.2497C0.75 13.0506 0.829117 12.8596 0.969947 12.7187L10.9404 2.74973Z" fill="currentColor"/>
</svg>
