<svg width="40" height="40" viewBox="0 0 40 40" fill="none" xmlns="http://www.w3.org/2000/svg">
<path d="M0 4C0 1.79086 1.79086 0 4 0H36C38.2091 0 40 1.79086 40 4V36C40 38.2091 38.2091 40 36 40H4C1.79086 40 0 38.2091 0 36V4Z" fill="#FFD152"/>
<path d="M20 10C18.0222 10 16.0888 10.5865 14.4443 11.6853C12.7998 12.7841 11.5181 14.3459 10.7612 16.1732C10.0043 18.0004 9.8063 20.0111 10.1922 21.9509C10.578 23.8907 11.5304 25.6725 12.9289 27.0711C14.3275 28.4696 16.1093 29.422 18.0491 29.8079C19.9889 30.1937 21.9996 29.9957 23.8268 29.2388C25.6541 28.4819 27.2159 27.2002 28.3147 25.5557C29.4135 23.9112 30 21.9778 30 20C30 18.6868 29.7413 17.3864 29.2388 16.1732C28.7363 14.9599 27.9997 13.8575 27.0711 12.9289C26.1425 12.0003 25.0401 11.2638 23.8268 10.7612C22.6136 10.2587 21.3132 10 20 10ZM20.88 23.32C21.7539 23.2888 22.6161 23.1096 23.43 22.79V24.57C22.5563 24.9209 21.6214 25.0943 20.68 25.08C20.0619 25.1198 19.4426 25.022 18.8668 24.7938C18.291 24.5655 17.773 24.2125 17.35 23.76C16.5221 22.6878 16.11 21.3523 16.19 20C16.1713 19.0586 16.3661 18.1252 16.76 17.27C17.1081 16.5211 17.6769 15.8965 18.39 15.48C19.1474 15.0477 20.0082 14.8299 20.88 14.85C21.897 14.8589 22.8988 15.0983 23.81 15.55L23.12 17.28C22.7568 17.0886 22.3828 16.9183 22 16.77C21.6404 16.6416 21.2619 16.574 20.88 16.57C20.521 16.5534 20.1636 16.6271 19.8404 16.7844C19.5172 16.9416 19.2386 17.1773 19.03 17.47C18.5451 18.2211 18.3138 19.1078 18.37 20C18.37 22.21 19.21 23.32 20.88 23.32Z" fill="#FEFCFF"/>
</svg>
