<svg width="40" height="40" viewBox="0 0 40 40" fill="none" xmlns="http://www.w3.org/2000/svg">
<path d="M0 4C0 1.79086 1.79086 0 4 0H36C38.2091 0 40 1.79086 40 4V36C40 38.2091 38.2091 40 36 40H4C1.79086 40 0 38.2091 0 36V4Z" fill="#28A745"/>
<g clip-path="url(#clip0_979_1129)">
<path d="M32 20C32 23.1826 30.7357 26.2348 28.4853 28.4853C26.2348 30.7357 23.1826 32 20 32C16.8174 32 13.7652 30.7357 11.5147 28.4853C9.26428 26.2348 8 23.1826 8 20C8 16.8174 9.26428 13.7652 11.5147 11.5147C13.7652 9.26428 16.8174 8 20 8C23.1826 8 26.2348 9.26428 28.4853 11.5147C30.7357 13.7652 32 16.8174 32 20ZM26.045 15.455C25.9379 15.3482 25.8103 15.2642 25.6699 15.2078C25.5295 15.1515 25.3792 15.124 25.228 15.1271C25.0768 15.1302 24.9277 15.1637 24.7897 15.2258C24.6518 15.2878 24.5277 15.377 24.425 15.488L19.2155 22.1255L16.076 18.9845C15.8627 18.7858 15.5807 18.6776 15.2892 18.6827C14.9978 18.6879 14.7197 18.8059 14.5136 19.0121C14.3074 19.2182 14.1894 19.4963 14.1842 19.7877C14.1791 20.0792 14.2873 20.3612 14.486 20.5745L18.455 24.545C18.5619 24.6517 18.6892 24.7358 18.8294 24.7923C18.9695 24.8487 19.1196 24.8764 19.2706 24.8736C19.4217 24.8708 19.5706 24.8376 19.7085 24.776C19.8465 24.7144 19.9706 24.6256 20.0735 24.515L26.0615 17.03C26.2656 16.8177 26.3784 16.5339 26.3756 16.2394C26.3728 15.945 26.2546 15.6633 26.0465 15.455H26.045Z" fill="#FEFCFF"/>
</g>
<defs>
<clipPath id="clip0_979_1129">
<rect width="24" height="24" fill="white" transform="translate(8 8)"/>
</clipPath>
</defs>
</svg>
