<svg width="40" height="40" viewBox="0 0 40 40" fill="none" xmlns="http://www.w3.org/2000/svg">
<path d="M0 4C0 1.79086 1.79086 0 4 0H36C38.2091 0 40 1.79086 40 4V36C40 38.2091 38.2091 40 36 40H4C1.79086 40 0 38.2091 0 36V4Z" fill="#DC3545"/>
<path d="M19.32 16.6909H18.2V23.2009H19.1C21.1533 23.2009 22.1766 22.1042 22.17 19.9109C22.1633 17.7176 21.2133 16.6442 19.32 16.6909Z" fill="#FEFCFF"/>
<path d="M20 10C18.0222 10 16.0888 10.5865 14.4443 11.6853C12.7998 12.7841 11.5181 14.3459 10.7612 16.1732C10.0043 18.0004 9.8063 20.0111 10.1922 21.9509C10.578 23.8907 11.5304 25.6725 12.9289 27.0711C14.3275 28.4696 16.1093 29.422 18.0491 29.8079C19.9889 30.1937 21.9996 29.9957 23.8268 29.2388C25.6541 28.4819 27.2159 27.2002 28.3147 25.5557C29.4135 23.9112 30 21.9778 30 20C30 18.6868 29.7413 17.3864 29.2388 16.1732C28.7363 14.9599 27.9997 13.8575 27.0711 12.9289C26.1425 12.0003 25.0401 11.2638 23.8268 10.7612C22.6136 10.2587 21.3132 10 20 10ZM23 23.64C21.8656 24.6084 20.3984 25.0962 18.91 25H16.08V15H19.21C20.5889 14.8993 21.9516 15.3488 23 16.25C23.4674 16.7205 23.8301 17.2844 24.0645 17.9048C24.2988 18.5251 24.3995 19.188 24.36 19.85C24.4128 20.5419 24.3189 21.2371 24.0846 21.8902C23.8502 22.5433 23.4806 23.1396 23 23.64Z" fill="#FEFCFF"/>
</svg>
