<svg width="12" height="12" viewBox="0 0 12 12" fill="none" xmlns="http://www.w3.org/2000/svg">
<g clip-path="url(#clip0_1014_661)">
<path d="M10.64 3.20039L5.86995 7.97037C5.39495 8.44537 3.98494 8.66537 3.66994 8.35037C3.35494 8.03537 3.56994 6.62537 4.04494 6.15037L8.81995 1.37538C8.9377 1.24691 9.08025 1.14364 9.23905 1.07179C9.3978 0.999937 9.5695 0.960987 9.74375 0.957317C9.91795 0.953652 10.0912 0.985322 10.2528 1.05043C10.4145 1.11553 10.5613 1.21273 10.6843 1.33613C10.8074 1.45953 10.9042 1.60658 10.9688 1.76841C11.0335 1.93025 11.0647 2.1035 11.0606 2.27772C11.0564 2.45195 11.017 2.62354 10.9447 2.78212C10.8724 2.94069 10.7688 3.08299 10.64 3.20039Z" stroke="#212529" stroke-linecap="round" stroke-linejoin="round"/>
<path d="M5.5 2H3C2.46956 2 1.96089 2.21071 1.58581 2.58578C1.21074 2.96086 1 3.46956 1 4V9C1 9.53045 1.21074 10.0391 1.58581 10.4142C1.96089 10.7893 2.46956 11 3 11H8.5C9.605 11 10 10.1 10 9V6.5" stroke="#212529" stroke-linecap="round" stroke-linejoin="round"/>
</g>
<defs>
<clipPath id="clip0_1014_661">
<rect width="12" height="12" fill="white"/>
</clipPath>
</defs>
</svg>
