<svg width="24" height="25" viewBox="0 0 24 25" fill="none" xmlns="http://www.w3.org/2000/svg">
<g clip-path="url(#clip0_979_636)">
<path d="M4.5 0.5H19.5C20.2956 0.5 21.0587 0.816071 21.6213 1.37868C22.1839 1.94129 22.5 2.70435 22.5 3.5V21.5C22.5 22.2956 22.1839 23.0587 21.6213 23.6213C21.0587 24.1839 20.2956 24.5 19.5 24.5H4.5C3.70435 24.5 2.94129 24.1839 2.37868 23.6213C1.81607 23.0587 1.5 22.2956 1.5 21.5V20H3V21.5C3 21.8978 3.15804 22.2794 3.43934 22.5607C3.72064 22.842 4.10218 23 4.5 23H19.5C19.8978 23 20.2794 22.842 20.5607 22.5607C20.842 22.2794 21 21.8978 21 21.5V3.5C21 3.10218 20.842 2.72064 20.5607 2.43934C20.2794 2.15804 19.8978 2 19.5 2H4.5C4.10218 2 3.72064 2.15804 3.43934 2.43934C3.15804 2.72064 3 3.10218 3 3.5V5H1.5V3.5C1.5 2.70435 1.81607 1.94129 2.37868 1.37868C2.94129 0.816071 3.70435 0.5 4.5 0.5V0.5Z" fill="#212529"/>
<path d="M1.5 8V7.25C1.5 7.05109 1.57902 6.86032 1.71967 6.71967C1.86032 6.57902 2.05109 6.5 2.25 6.5C2.44891 6.5 2.63968 6.57902 2.78033 6.71967C2.92098 6.86032 3 7.05109 3 7.25V8H3.75C3.94891 8 4.13968 8.07902 4.28033 8.21967C4.42098 8.36032 4.5 8.55109 4.5 8.75C4.5 8.94891 4.42098 9.13968 4.28033 9.28033C4.13968 9.42098 3.94891 9.5 3.75 9.5H0.75C0.551088 9.5 0.360322 9.42098 0.21967 9.28033C0.0790176 9.13968 0 8.94891 0 8.75C0 8.55109 0.0790176 8.36032 0.21967 8.21967C0.360322 8.07902 0.551088 8 0.75 8H1.5ZM1.5 12.5V11.75C1.5 11.5511 1.57902 11.3603 1.71967 11.2197C1.86032 11.079 2.05109 11 2.25 11C2.44891 11 2.63968 11.079 2.78033 11.2197C2.92098 11.3603 3 11.5511 3 11.75V12.5H3.75C3.94891 12.5 4.13968 12.579 4.28033 12.7197C4.42098 12.8603 4.5 13.0511 4.5 13.25C4.5 13.4489 4.42098 13.6397 4.28033 13.7803C4.13968 13.921 3.94891 14 3.75 14H0.75C0.551088 14 0.360322 13.921 0.21967 13.7803C0.0790176 13.6397 0 13.4489 0 13.25C0 13.0511 0.0790176 12.8603 0.21967 12.7197C0.360322 12.579 0.551088 12.5 0.75 12.5H1.5ZM1.5 17V16.25C1.5 16.0511 1.57902 15.8603 1.71967 15.7197C1.86032 15.579 2.05109 15.5 2.25 15.5C2.44891 15.5 2.63968 15.579 2.78033 15.7197C2.92098 15.8603 3 16.0511 3 16.25V17H3.75C3.94891 17 4.13968 17.079 4.28033 17.2197C4.42098 17.3603 4.5 17.5511 4.5 17.75C4.5 17.9489 4.42098 18.1397 4.28033 18.2803C4.13968 18.421 3.94891 18.5 3.75 18.5H0.75C0.551088 18.5 0.360322 18.421 0.21967 18.2803C0.0790176 18.1397 0 17.9489 0 17.75C0 17.5511 0.0790176 17.3603 0.21967 17.2197C0.360322 17.079 0.551088 17 0.75 17H1.5Z" fill="#212529"/>
<path fill-rule="evenodd" clip-rule="evenodd" d="M7.5 17.75C7.5 17.5511 7.57902 17.3603 7.71967 17.2197C7.86032 17.079 8.05109 17 8.25 17H11.25C11.4489 17 11.6397 17.079 11.7803 17.2197C11.921 17.3603 12 17.5511 12 17.75C12 17.9489 11.921 18.1397 11.7803 18.2803C11.6397 18.421 11.4489 18.5 11.25 18.5H8.25C8.05109 18.5 7.86032 18.421 7.71967 18.2803C7.57902 18.1397 7.5 17.9489 7.5 17.75ZM7.5 14.75C7.5 14.5511 7.57902 14.3603 7.71967 14.2197C7.86032 14.079 8.05109 14 8.25 14H15.75C15.9489 14 16.1397 14.079 16.2803 14.2197C16.421 14.3603 16.5 14.5511 16.5 14.75C16.5 14.9489 16.421 15.1397 16.2803 15.2803C16.1397 15.421 15.9489 15.5 15.75 15.5H8.25C8.05109 15.5 7.86032 15.421 7.71967 15.2803C7.57902 15.1397 7.5 14.9489 7.5 14.75ZM9.9585 8.438L11.9535 9.767L14.7345 6.9845C14.7902 6.92867 14.862 6.8918 14.9398 6.87915C15.0177 6.86649 15.0975 6.87869 15.168 6.914L16.5 7.625V11C16.5 11.1989 16.421 11.3897 16.2803 11.5303C16.1397 11.671 15.9489 11.75 15.75 11.75H8.25C8.05109 11.75 7.86032 11.671 7.71967 11.5303C7.57902 11.3897 7.5 11.1989 7.5 11V10.25C7.5 10.25 9.81 8.339 9.9585 8.438ZM10.125 7.25C10.4234 7.25 10.7095 7.13147 10.9205 6.9205C11.1315 6.70952 11.25 6.42337 11.25 6.125C11.25 5.82663 11.1315 5.54048 10.9205 5.3295C10.7095 5.11853 10.4234 5 10.125 5C9.82663 5 9.54048 5.11853 9.3295 5.3295C9.11853 5.54048 9 5.82663 9 6.125C9 6.42337 9.11853 6.70952 9.3295 6.9205C9.54048 7.13147 9.82663 7.25 10.125 7.25Z" fill="#212529"/>
</g>
<defs>
<clipPath id="clip0_979_636">
<rect width="24" height="24" fill="white" transform="translate(0 0.5)"/>
</clipPath>
</defs>
</svg>
