<svg width="40" height="40" viewBox="0 0 40 40" fill="none" xmlns="http://www.w3.org/2000/svg">
<path d="M0 4C0 1.79086 1.79086 0 4 0H36C38.2091 0 40 1.79086 40 4V36C40 38.2091 38.2091 40 36 40H4C1.79086 40 0 38.2091 0 36V4Z" fill="#DC3545"/>
<g clip-path="url(#clip0_979_1142)">
<path d="M32 20C32 23.1826 30.7357 26.2348 28.4853 28.4853C26.2348 30.7357 23.1826 32 20 32C16.8174 32 13.7652 30.7357 11.5147 28.4853C9.26428 26.2348 8 23.1826 8 20C8 16.8174 9.26428 13.7652 11.5147 11.5147C13.7652 9.26428 16.8174 8 20 8C23.1826 8 26.2348 9.26428 28.4853 11.5147C30.7357 13.7652 32 16.8174 32 20ZM16.031 14.969C15.8902 14.8282 15.6992 14.7491 15.5 14.7491C15.3008 14.7491 15.1098 14.8282 14.969 14.969C14.8282 15.1098 14.7491 15.3008 14.7491 15.5C14.7491 15.6992 14.8282 15.8902 14.969 16.031L18.9395 20L14.969 23.969C14.8993 24.0387 14.844 24.1215 14.8062 24.2126C14.7685 24.3037 14.7491 24.4014 14.7491 24.5C14.7491 24.5986 14.7685 24.6963 14.8062 24.7874C14.844 24.8785 14.8993 24.9613 14.969 25.031C15.1098 25.1718 15.3008 25.2509 15.5 25.2509C15.5986 25.2509 15.6963 25.2315 15.7874 25.1938C15.8785 25.156 15.9613 25.1007 16.031 25.031L20 21.0605L23.969 25.031C24.0387 25.1007 24.1215 25.156 24.2126 25.1938C24.3037 25.2315 24.4014 25.2509 24.5 25.2509C24.5986 25.2509 24.6963 25.2315 24.7874 25.1938C24.8785 25.156 24.9613 25.1007 25.031 25.031C25.1007 24.9613 25.156 24.8785 25.1938 24.7874C25.2315 24.6963 25.2509 24.5986 25.2509 24.5C25.2509 24.4014 25.2315 24.3037 25.1938 24.2126C25.156 24.1215 25.1007 24.0387 25.031 23.969L21.0605 20L25.031 16.031C25.1007 15.9613 25.156 15.8785 25.1938 15.7874C25.2315 15.6963 25.2509 15.5986 25.2509 15.5C25.2509 15.4014 25.2315 15.3037 25.1938 15.2126C25.156 15.1215 25.1007 15.0387 25.031 14.969C24.9613 14.8993 24.8785 14.844 24.7874 14.8062C24.6963 14.7685 24.5986 14.7491 24.5 14.7491C24.4014 14.7491 24.3037 14.7685 24.2126 14.8062C24.1215 14.844 24.0387 14.8993 23.969 14.969L20 18.9395L16.031 14.969Z" fill="#FEFCFF"/>
</g>
<defs>
<clipPath id="clip0_979_1142">
<rect width="24" height="24" fill="white" transform="translate(8 8)"/>
</clipPath>
</defs>
</svg>
