<svg width="40" height="55" viewBox="0 0 40 55" fill="none" xmlns="http://www.w3.org/2000/svg">
<path d="M0 8.46645C0.5 6.57508 2.34375 6.25 2.8125 6.25C4.53125 6.25 5.9375 7.23509 6.25 8.02316V45.8506L0 52.5V8.46645Z" fill="#F8961D"/>
<path d="M40 46.5121C39.5 48.4218 37.6562 48.75 37.1875 48.75C35.4688 48.75 34.0625 47.6062 33.75 46.8105V8.76612L40 2.5V46.5121Z" fill="#4CB853"/>
<path d="M11.7914 17.8466C9.69152 19.9468 7.22218 17.8981 6.25 16.6112V7.972L11.7914 13.677C13.0747 15.7772 12.3261 17.3318 11.7914 17.8466Z" fill="#F6851F"/>
<path d="M28.2088 38.3549C30.3086 36.3677 32.7779 38.3062 33.75 39.5238V46.875L28.2088 42.3001C26.9256 40.3129 27.6741 38.842 28.2088 38.3549Z" fill="#2C9C48"/>
<path d="M0.60127 54.0148C-1.28892 51.6153 1.76442 49.4982 3.07301 48.0867L23.138 28.75C22.7891 31.9116 25.9006 32.5138 27.5 32.4197L6.56259 53.0268C3.65462 56.0755 1.4252 54.9087 0.60127 54.0148Z" fill="#E01F27"/>
<path d="M39.3987 0.985233C41.2889 3.38468 38.2356 5.50184 36.927 6.91328L16.862 26.25C17.2109 23.0884 14.0994 22.4862 12.5 22.5803L33.4374 1.97324C36.3454 -1.07547 38.5748 0.0913208 39.3987 0.985233Z" fill="#28A992"/>
<path d="M28.75 30.625C28.75 32.3509 27.3509 33.75 25.625 33.75C23.8991 33.75 22.5 32.3509 22.5 30.625C22.5 28.8991 23.8991 27.5 25.625 27.5C27.3509 27.5 28.75 28.8991 28.75 30.625Z" fill="#CA2127"/>
<path d="M17.4374 25C17.4374 26.7259 16.0382 28.125 14.3124 28.125C12.5865 28.125 11.1874 26.7259 11.1874 25C11.1874 23.2741 12.5865 21.875 14.3124 21.875C16.0382 21.875 17.4374 23.2741 17.4374 25Z" fill="#299B86"/>
</svg>
