<svg width="24" height="24" viewBox="0 0 24 24" fill="none" xmlns="http://www.w3.org/2000/svg">
<g clip-path="url(#clip0_979_818)">
<path d="M12.0001 7.13086C11.3607 7.13086 10.7276 7.2568 10.1368 7.50149C9.54608 7.74618 9.00933 8.10483 8.5572 8.55696C8.10507 9.00908 7.74642 9.54584 7.50173 10.1366C7.25704 10.7273 7.1311 11.3605 7.1311 11.9999C7.1311 12.6393 7.25704 13.2724 7.50173 13.8631C7.74642 14.4539 8.10507 14.9906 8.5572 15.4428C9.00933 15.8949 9.54608 16.2535 10.1368 16.4982C10.7276 16.7429 11.3607 16.8689 12.0001 16.8689C13.2914 16.8689 14.5299 16.3559 15.443 15.4428C16.3561 14.5296 16.8691 13.2912 16.8691 11.9999C16.8691 10.7085 16.3561 9.47007 15.443 8.55696C14.5299 7.64384 13.2914 7.13086 12.0001 7.13086ZM8.6311 11.9999C8.6311 11.1063 8.98605 10.2494 9.61786 9.61762C10.2497 8.98581 11.1066 8.63086 12.0001 8.63086C12.8936 8.63086 13.7505 8.98581 14.3823 9.61762C15.0142 10.2494 15.3691 11.1063 15.3691 11.9999C15.3691 12.8934 15.0142 13.7503 14.3823 14.3821C13.7505 15.0139 12.8936 15.3689 12.0001 15.3689C11.1066 15.3689 10.2497 15.0139 9.61786 14.3821C8.98605 13.7503 8.6311 12.8934 8.6311 11.9999Z" fill="#212529"/>
<path d="M14.694 2.01375C13.9035 -0.67125 10.0965 -0.67125 9.30598 2.01375L9.16498 2.49225C9.10978 2.67968 9.01333 2.85238 8.88271 2.99769C8.75209 3.143 8.5906 3.25724 8.41009 3.33203C8.22959 3.40682 8.03463 3.44027 7.83951 3.42993C7.6444 3.41958 7.45407 3.36571 7.28248 3.27225L6.84448 3.03225C4.38448 1.69425 1.69498 4.38525 3.03448 6.84375L3.27298 7.28175C3.36644 7.45334 3.42032 7.64367 3.43066 7.83878C3.441 8.0339 3.40755 8.22885 3.33276 8.40936C3.25797 8.58987 3.14373 8.75135 2.99842 8.88198C2.85311 9.0126 2.68041 9.10904 2.49298 9.16425L2.01448 9.30525C-0.670518 10.0957 -0.670518 13.9028 2.01448 14.6932L2.49298 14.8343C2.68041 14.8895 2.85311 14.9859 2.99842 15.1165C3.14373 15.2471 3.25797 15.4086 3.33276 15.5891C3.40755 15.7696 3.441 15.9646 3.43066 16.1597C3.42032 16.3548 3.36644 16.5452 3.27298 16.7168L3.03298 17.1548C1.69498 19.6147 4.38448 22.3057 6.84448 20.9648L7.28248 20.7262C7.45407 20.6328 7.6444 20.5789 7.83951 20.5686C8.03463 20.5582 8.22959 20.5917 8.41009 20.6665C8.5906 20.7413 8.75209 20.8555 8.88271 21.0008C9.01333 21.1461 9.10978 21.3188 9.16498 21.5063L9.30598 21.9847C10.0965 24.6698 13.9035 24.6698 14.694 21.9847L14.835 21.5063C14.8902 21.3188 14.9866 21.1461 15.1173 21.0008C15.2479 20.8555 15.4094 20.7413 15.5899 20.6665C15.7704 20.5917 15.9653 20.5582 16.1604 20.5686C16.3556 20.5789 16.5459 20.6328 16.7175 20.7262L17.1555 20.9662C19.6155 22.3057 22.3065 19.6133 20.9655 17.1548L20.727 16.7168C20.6335 16.5452 20.5796 16.3548 20.5693 16.1597C20.559 15.9646 20.5924 15.7696 20.6672 15.5891C20.742 15.4086 20.8562 15.2471 21.0015 15.1165C21.1469 14.9859 21.3196 14.8895 21.507 14.8343L21.9855 14.6932C24.6705 13.9028 24.6705 10.0957 21.9855 9.30525L21.507 9.16425C21.3196 9.10904 21.1469 9.0126 21.0015 8.88198C20.8562 8.75135 20.742 8.58987 20.6672 8.40936C20.5924 8.22885 20.559 8.0339 20.5693 7.83878C20.5796 7.64367 20.6335 7.45334 20.727 7.28175L20.967 6.84375C22.3065 4.38375 19.614 1.69425 17.1555 3.03375L16.7175 3.27225C16.5459 3.36571 16.3556 3.41958 16.1604 3.42993C15.9653 3.44027 15.7704 3.40682 15.5899 3.33203C15.4094 3.25724 15.2479 3.143 15.1173 2.99769C14.9866 2.85238 14.8902 2.67968 14.835 2.49225L14.694 2.01375ZM10.7445 2.43825C11.1135 1.18575 12.8865 1.18575 13.2555 2.43825L13.3965 2.91675C13.515 3.31888 13.722 3.68938 14.0024 4.0011C14.2827 4.31282 14.6293 4.55784 15.0166 4.71822C15.4039 4.87859 15.8223 4.95025 16.2409 4.92793C16.6595 4.90562 17.0679 4.7899 17.436 4.58925L17.8725 4.34925C19.0185 3.72675 20.2725 4.97925 19.6485 6.12675L19.41 6.56475C19.2096 6.93289 19.0942 7.34119 19.0721 7.75973C19.0501 8.17828 19.1219 8.59645 19.2824 8.98363C19.4429 9.3708 19.688 9.71715 19.9997 9.99731C20.3115 10.2775 20.6819 10.4843 21.084 10.6027L21.561 10.7437C22.8135 11.1128 22.8135 12.8857 21.561 13.2548L21.0825 13.3958C20.6804 13.5143 20.3099 13.7213 19.9981 14.0016C19.6864 14.282 19.4414 14.6285 19.281 15.0159C19.1206 15.4032 19.049 15.8215 19.0713 16.2402C19.0936 16.6588 19.2093 17.0672 19.41 17.4352L19.65 17.8717C20.2725 19.0177 19.02 20.2717 17.8725 19.6478L17.436 19.4093C17.0678 19.2086 16.6593 19.093 16.2406 19.0707C15.8219 19.0485 15.4035 19.1203 15.0162 19.2808C14.6288 19.4414 14.2823 19.6866 14.002 19.9984C13.7217 20.3103 13.5148 20.681 13.3965 21.0833L13.2555 21.5602C12.8865 22.8127 11.1135 22.8127 10.7445 21.5602L10.6035 21.0818C10.4849 20.6798 10.2779 20.3095 9.99768 19.998C9.71745 19.6864 9.37107 19.4415 8.98392 19.2811C8.59676 19.1208 8.17865 19.0491 7.76019 19.0712C7.34172 19.0934 6.93352 19.2089 6.56548 19.4093L6.12748 19.6493C4.98148 20.2718 3.72748 19.0193 4.35148 17.8717L4.58998 17.4352C4.79091 17.0671 4.90686 16.6586 4.92932 16.2398C4.95179 15.821 4.88019 15.4025 4.7198 15.0149C4.5594 14.6274 4.31427 14.2807 4.0024 14.0002C3.69053 13.7198 3.31982 13.5127 2.91748 13.3943L2.43898 13.2533C1.18648 12.8843 1.18648 11.1112 2.43898 10.7423L2.91748 10.6012C3.31919 10.4826 3.68929 10.2757 4.0007 9.99553C4.3121 9.7154 4.55693 9.36919 4.71726 8.98223C4.8776 8.59527 4.94938 8.17736 4.92736 7.75908C4.90533 7.3408 4.79006 6.93273 4.58998 6.56475L4.34998 6.12675C3.72748 4.98075 4.97998 3.72675 6.12748 4.35075L6.56548 4.58925C6.93352 4.78961 7.34172 4.90511 7.76019 4.92728C8.17865 4.94945 8.59676 4.87773 8.98392 4.71737C9.37107 4.55702 9.71745 4.31209 9.99768 4.00053C10.2779 3.68897 10.4849 3.31867 10.6035 2.91675L10.7445 2.43825Z" fill="#212529"/>
</g>
<defs>
<clipPath id="clip0_979_818">
<rect width="24" height="24" fill="white"/>
</clipPath>
</defs>
</svg>
