<svg width="32" height="32" viewBox="0 0 32 32" fill="none" xmlns="http://www.w3.org/2000/svg">
<path d="M0 16C0 7.16344 7.16344 0 16 0C24.8366 0 32 7.16344 32 16C32 24.8366 24.8366 32 16 32C7.16344 32 0 24.8366 0 16Z" fill="#D1D5DB"/>
<path d="M21.3006 14.5008H27.1986C27.2699 14.5008 27.3397 14.5211 27.3998 14.5594C27.4599 14.5976 27.5079 14.6522 27.5381 14.7167C27.5683 14.7813 27.5795 14.8531 27.5704 14.9237C27.5613 14.9944 27.5322 15.061 27.4866 15.1158L24.5376 18.6558C24.5024 18.698 24.4584 18.7319 24.4086 18.7552C24.3589 18.7785 24.3046 18.7906 24.2496 18.7906C24.1947 18.7906 24.1404 18.7785 24.0906 18.7552C24.0409 18.7319 23.9968 18.698 23.9616 18.6558L21.0126 15.1158C20.967 15.061 20.938 14.9944 20.9289 14.9237C20.9197 14.8531 20.931 14.7813 20.9612 14.7167C20.9914 14.6522 21.0394 14.5976 21.0995 14.5594C21.1596 14.5211 21.2294 14.5008 21.3006 14.5008ZM4.80064 17.5008H10.6986C10.7699 17.5007 10.8397 17.4804 10.8998 17.4422C10.9599 17.4039 11.0079 17.3493 11.0381 17.2848C11.0683 17.2203 11.0795 17.1485 11.0704 17.0778C11.0613 17.0071 11.0322 16.9405 10.9866 16.8858L8.03764 13.3458C8.00245 13.3036 7.95841 13.2696 7.90864 13.2463C7.85887 13.223 7.80459 13.2109 7.74964 13.2109C7.69469 13.2109 7.64041 13.223 7.59064 13.2463C7.54087 13.2696 7.49683 13.3036 7.46164 13.3458L4.51264 16.8858C4.46704 16.9405 4.43798 17.0071 4.42886 17.0778C4.41975 17.1485 4.43096 17.2203 4.46117 17.2848C4.49139 17.3493 4.53937 17.4039 4.59949 17.4422C4.65961 17.4804 4.72939 17.5007 4.80064 17.5008Z" fill="#212529"/>
<path fill-rule="evenodd" clip-rule="evenodd" d="M15.9995 8.50059C13.6715 8.50059 11.5895 9.56109 10.214 11.2276C10.1526 11.3072 10.0758 11.3736 9.98819 11.423C9.90057 11.4723 9.80393 11.5035 9.70401 11.5148C9.60409 11.526 9.50293 11.517 9.40655 11.4884C9.31016 11.4597 9.22052 11.412 9.14296 11.348C9.06539 11.284 9.00149 11.2051 8.95504 11.1159C8.90859 11.0267 8.88054 10.9291 8.87257 10.8289C8.8646 10.7287 8.87687 10.6279 8.90864 10.5325C8.94041 10.4371 8.99104 10.349 9.05752 10.2736C10.1558 8.94388 11.6129 7.95761 13.2555 7.43208C14.8981 6.90654 16.6571 6.86387 18.3233 7.30913C19.9895 7.75438 21.4927 8.66884 22.6541 9.94372C23.8156 11.2186 24.5865 12.8003 24.875 14.5006H23.3495C23.0037 12.8065 22.0833 11.284 20.7439 10.1906C19.4045 9.09727 17.7285 8.50024 15.9995 8.50059ZM8.64952 17.5006C8.93349 18.8875 9.60405 20.1658 10.5837 21.1878C11.5634 22.2098 12.8123 22.9337 14.186 23.276C15.5597 23.6183 17.0022 23.565 18.3469 23.1222C19.6915 22.6793 20.8835 21.8651 21.785 20.7736C21.8464 20.694 21.9232 20.6275 22.0109 20.5782C22.0985 20.5289 22.1951 20.4977 22.295 20.4864C22.395 20.4752 22.4961 20.4842 22.5925 20.5128C22.6889 20.5415 22.7785 20.5892 22.8561 20.6532C22.9337 20.7172 22.9976 20.7961 23.044 20.8853C23.0905 20.9744 23.1185 21.072 23.1265 21.1723C23.1344 21.2725 23.1222 21.3733 23.0904 21.4687C23.0586 21.5641 23.008 21.6522 22.9415 21.7276C21.8432 23.0573 20.3861 24.0436 18.7435 24.5691C17.1009 25.0946 15.3419 25.1373 13.6758 24.6921C12.0096 24.2468 10.5064 23.3323 9.34491 22.0575C8.18343 20.7826 7.41258 19.2009 7.12402 17.5006H8.64952Z" fill="#212529"/>
</svg>
