<svg width="64" height="64" viewBox="0 0 64 64" fill="none" xmlns="http://www.w3.org/2000/svg">
<rect width="64" height="64" rx="32" fill="#7F8B7A"/>
<path d="M21.375 15H42.625C43.7522 15 44.8332 15.4478 45.6302 16.2448C46.4272 17.0418 46.875 18.1228 46.875 19.25V44.75C46.875 45.8772 46.4272 46.9582 45.6302 47.7552C44.8332 48.5522 43.7522 49 42.625 49H21.375C20.2478 49 19.1668 48.5522 18.3698 47.7552C17.5728 46.9582 17.125 45.8772 17.125 44.75V42.625H19.25V44.75C19.25 45.3136 19.4739 45.8541 19.8724 46.2526C20.2709 46.6511 20.8114 46.875 21.375 46.875H42.625C43.1886 46.875 43.7291 46.6511 44.1276 46.2526C44.5261 45.8541 44.75 45.3136 44.75 44.75V19.25C44.75 18.6864 44.5261 18.1459 44.1276 17.7474C43.7291 17.3489 43.1886 17.125 42.625 17.125H21.375C20.8114 17.125 20.2709 17.3489 19.8724 17.7474C19.4739 18.1459 19.25 18.6864 19.25 19.25V21.375H17.125V19.25C17.125 18.1228 17.5728 17.0418 18.3698 16.2448C19.1668 15.4478 20.2478 15 21.375 15V15Z" fill="#FEFCFF"/>
<path d="M17.125 25.625V24.5625C17.125 24.2807 17.2369 24.0105 17.4362 23.8112C17.6355 23.6119 17.9057 23.5 18.1875 23.5C18.4693 23.5 18.7395 23.6119 18.9388 23.8112C19.1381 24.0105 19.25 24.2807 19.25 24.5625V25.625H20.3125C20.5943 25.625 20.8645 25.7369 21.0638 25.9362C21.2631 26.1355 21.375 26.4057 21.375 26.6875C21.375 26.9693 21.2631 27.2395 21.0638 27.4388C20.8645 27.6381 20.5943 27.75 20.3125 27.75H16.0625C15.7807 27.75 15.5105 27.6381 15.3112 27.4388C15.1119 27.2395 15 26.9693 15 26.6875C15 26.4057 15.1119 26.1355 15.3112 25.9362C15.5105 25.7369 15.7807 25.625 16.0625 25.625H17.125ZM17.125 32V30.9375C17.125 30.6557 17.2369 30.3855 17.4362 30.1862C17.6355 29.9869 17.9057 29.875 18.1875 29.875C18.4693 29.875 18.7395 29.9869 18.9388 30.1862C19.1381 30.3855 19.25 30.6557 19.25 30.9375V32H20.3125C20.5943 32 20.8645 32.1119 21.0638 32.3112C21.2631 32.5105 21.375 32.7807 21.375 33.0625C21.375 33.3443 21.2631 33.6145 21.0638 33.8138C20.8645 34.0131 20.5943 34.125 20.3125 34.125H16.0625C15.7807 34.125 15.5105 34.0131 15.3112 33.8138C15.1119 33.6145 15 33.3443 15 33.0625C15 32.7807 15.1119 32.5105 15.3112 32.3112C15.5105 32.1119 15.7807 32 16.0625 32H17.125ZM17.125 38.375V37.3125C17.125 37.0307 17.2369 36.7605 17.4362 36.5612C17.6355 36.3619 17.9057 36.25 18.1875 36.25C18.4693 36.25 18.7395 36.3619 18.9388 36.5612C19.1381 36.7605 19.25 37.0307 19.25 37.3125V38.375H20.3125C20.5943 38.375 20.8645 38.4869 21.0638 38.6862C21.2631 38.8855 21.375 39.1557 21.375 39.4375C21.375 39.7193 21.2631 39.9895 21.0638 40.1888C20.8645 40.3881 20.5943 40.5 20.3125 40.5H16.0625C15.7807 40.5 15.5105 40.3881 15.3112 40.1888C15.1119 39.9895 15 39.7193 15 39.4375C15 39.1557 15.1119 38.8855 15.3112 38.6862C15.5105 38.4869 15.7807 38.375 16.0625 38.375H17.125Z" fill="#FEFCFF"/>
<path fill-rule="evenodd" clip-rule="evenodd" d="M25.625 37.3125C25.625 37.0307 25.7369 36.7605 25.9362 36.5612C26.1355 36.3619 26.4057 36.25 26.6875 36.25H30.9375C31.2193 36.25 31.4895 36.3619 31.6888 36.5612C31.8881 36.7605 32 37.0307 32 37.3125C32 37.5943 31.8881 37.8645 31.6888 38.0638C31.4895 38.2631 31.2193 38.375 30.9375 38.375H26.6875C26.4057 38.375 26.1355 38.2631 25.9362 38.0638C25.7369 37.8645 25.625 37.5943 25.625 37.3125ZM25.625 33.0625C25.625 32.7807 25.7369 32.5105 25.9362 32.3112C26.1355 32.1119 26.4057 32 26.6875 32H37.3125C37.5943 32 37.8645 32.1119 38.0638 32.3112C38.2631 32.5105 38.375 32.7807 38.375 33.0625C38.375 33.3443 38.2631 33.6145 38.0638 33.8138C37.8645 34.0131 37.5943 34.125 37.3125 34.125H26.6875C26.4057 34.125 26.1355 34.0131 25.9362 33.8138C25.7369 33.6145 25.625 33.3443 25.625 33.0625ZM25.625 28.8125C25.625 28.5307 25.7369 28.2605 25.9362 28.0612C26.1355 27.8619 26.4057 27.75 26.6875 27.75H37.3125C37.5943 27.75 37.8645 27.8619 38.0638 28.0612C38.2631 28.2605 38.375 28.5307 38.375 28.8125C38.375 29.0943 38.2631 29.3645 38.0638 29.5638C37.8645 29.7631 37.5943 29.875 37.3125 29.875H26.6875C26.4057 29.875 26.1355 29.7631 25.9362 29.5638C25.7369 29.3645 25.625 29.0943 25.625 28.8125ZM25.625 24.5625C25.625 24.2807 25.7369 24.0105 25.9362 23.8112C26.1355 23.6119 26.4057 23.5 26.6875 23.5H37.3125C37.5943 23.5 37.8645 23.6119 38.0638 23.8112C38.2631 24.0105 38.375 24.2807 38.375 24.5625C38.375 24.8443 38.2631 25.1145 38.0638 25.3138C37.8645 25.5131 37.5943 25.625 37.3125 25.625H26.6875C26.4057 25.625 26.1355 25.5131 25.9362 25.3138C25.7369 25.1145 25.625 24.8443 25.625 24.5625Z" fill="#FEFCFF"/>
</svg>
