<svg width="40" height="40" viewBox="0 0 40 40" fill="none" xmlns="http://www.w3.org/2000/svg">
<path d="M0 4C0 1.79086 1.79086 0 4 0H36C38.2091 0 40 1.79086 40 4V36C40 38.2091 38.2091 40 36 40H4C1.79086 40 0 38.2091 0 36V4Z" fill="#0D6EFD"/>
<path d="M16 23.75C16 23.5511 16.0843 23.3603 16.2343 23.2197C16.3843 23.079 16.5878 23 16.8 23H20C20.2122 23 20.4157 23.079 20.5657 23.2197C20.7157 23.3603 20.8 23.5511 20.8 23.75C20.8 23.9489 20.7157 24.1397 20.5657 24.2803C20.4157 24.421 20.2122 24.5 20 24.5H16.8C16.5878 24.5 16.3843 24.421 16.2343 24.2803C16.0843 24.1397 16 23.9489 16 23.75ZM16 20.75C16 20.5511 16.0843 20.3603 16.2343 20.2197C16.3843 20.079 16.5878 20 16.8 20H24.8C25.0122 20 25.2157 20.079 25.3657 20.2197C25.5157 20.3603 25.6 20.5511 25.6 20.75C25.6 20.9489 25.5157 21.1397 25.3657 21.2803C25.2157 21.421 25.0122 21.5 24.8 21.5H16.8C16.5878 21.5 16.3843 21.421 16.2343 21.2803C16.0843 21.1397 16 20.9489 16 20.75ZM16 17.75C16 17.5511 16.0843 17.3603 16.2343 17.2197C16.3843 17.079 16.5878 17 16.8 17H24.8C25.0122 17 25.2157 17.079 25.3657 17.2197C25.5157 17.3603 25.6 17.5511 25.6 17.75C25.6 17.9489 25.5157 18.1397 25.3657 18.2803C25.2157 18.421 25.0122 18.5 24.8 18.5H16.8C16.5878 18.5 16.3843 18.421 16.2343 18.2803C16.0843 18.1397 16 17.9489 16 17.75ZM16 14.75C16 14.5511 16.0843 14.3603 16.2343 14.2197C16.3843 14.079 16.5878 14 16.8 14H24.8C25.0122 14 25.2157 14.079 25.3657 14.2197C25.5157 14.3603 25.6 14.5511 25.6 14.75C25.6 14.9489 25.5157 15.1397 25.3657 15.2803C25.2157 15.421 25.0122 15.5 24.8 15.5H16.8C16.5878 15.5 16.3843 15.421 16.2343 15.2803C16.0843 15.1397 16 14.9489 16 14.75Z" fill="#FEFCFF"/>
<path d="M12.8001 8H28.8001C29.6488 8 30.4627 8.31607 31.0628 8.87868C31.663 9.44129 32.0001 10.2044 32.0001 11V29C32.0001 29.7956 31.663 30.5587 31.0628 31.1213C30.4627 31.6839 29.6488 32 28.8001 32H12.8001C11.9514 32 11.1375 31.6839 10.5374 31.1213C9.93724 30.5587 9.6001 29.7956 9.6001 29V27.5H11.2001V29C11.2001 29.3978 11.3687 29.7794 11.6687 30.0607C11.9688 30.342 12.3758 30.5 12.8001 30.5H28.8001C29.2244 30.5 29.6314 30.342 29.9315 30.0607C30.2315 29.7794 30.4001 29.3978 30.4001 29V11C30.4001 10.6022 30.2315 10.2206 29.9315 9.93934C29.6314 9.65804 29.2244 9.5 28.8001 9.5H12.8001C12.3758 9.5 11.9688 9.65804 11.6687 9.93934C11.3687 10.2206 11.2001 10.6022 11.2001 11V12.5H9.6001V11C9.6001 10.2044 9.93724 9.44129 10.5374 8.87868C11.1375 8.31607 11.9514 8 12.8001 8Z" fill="#FEFCFF"/>
<path d="M9.6 15.5V14.75C9.6 14.5511 9.68429 14.3603 9.83431 14.2197C9.98434 14.079 10.1878 14 10.4 14C10.6122 14 10.8157 14.079 10.9657 14.2197C11.1157 14.3603 11.2 14.5511 11.2 14.75V15.5H12C12.2122 15.5 12.4157 15.579 12.5657 15.7197C12.7157 15.8603 12.8 16.0511 12.8 16.25C12.8 16.4489 12.7157 16.6397 12.5657 16.7803C12.4157 16.921 12.2122 17 12 17H8.8C8.58783 17 8.38434 16.921 8.23431 16.7803C8.08429 16.6397 8 16.4489 8 16.25C8 16.0511 8.08429 15.8603 8.23431 15.7197C8.38434 15.579 8.58783 15.5 8.8 15.5H9.6ZM9.6 20V19.25C9.6 19.0511 9.68429 18.8603 9.83431 18.7197C9.98434 18.579 10.1878 18.5 10.4 18.5C10.6122 18.5 10.8157 18.579 10.9657 18.7197C11.1157 18.8603 11.2 19.0511 11.2 19.25V20H12C12.2122 20 12.4157 20.079 12.5657 20.2197C12.7157 20.3603 12.8 20.5511 12.8 20.75C12.8 20.9489 12.7157 21.1397 12.5657 21.2803C12.4157 21.421 12.2122 21.5 12 21.5H8.8C8.58783 21.5 8.38434 21.421 8.23431 21.2803C8.08429 21.1397 8 20.9489 8 20.75C8 20.5511 8.08429 20.3603 8.23431 20.2197C8.38434 20.079 8.58783 20 8.8 20H9.6ZM9.6 24.5V23.75C9.6 23.5511 9.68429 23.3603 9.83431 23.2197C9.98434 23.079 10.1878 23 10.4 23C10.6122 23 10.8157 23.079 10.9657 23.2197C11.1157 23.3603 11.2 23.5511 11.2 23.75V24.5H12C12.2122 24.5 12.4157 24.579 12.5657 24.7197C12.7157 24.8603 12.8 25.0511 12.8 25.25C12.8 25.4489 12.7157 25.6397 12.5657 25.7803C12.4157 25.921 12.2122 26 12 26H8.8C8.58783 26 8.38434 25.921 8.23431 25.7803C8.08429 25.6397 8 25.4489 8 25.25C8 25.0511 8.08429 24.8603 8.23431 24.7197C8.38434 24.579 8.58783 24.5 8.8 24.5H9.6Z" fill="#FEFCFF"/>
</svg>
