<svg width="24" height="25" viewBox="0 0 24 25" fill="none" xmlns="http://www.w3.org/2000/svg">
<g clip-path="url(#clip0_979_633)">
<path d="M10.5 4.25C10.5 4.05109 10.579 3.86032 10.7197 3.71967C10.8603 3.57902 11.0511 3.5 11.25 3.5H21.75C21.9489 3.5 22.1397 3.57902 22.2803 3.71967C22.421 3.86032 22.5 4.05109 22.5 4.25V5.75C22.5 5.94891 22.421 6.13968 22.2803 6.28033C22.1397 6.42098 21.9489 6.5 21.75 6.5H11.25C11.0511 6.5 10.8603 6.42098 10.7197 6.28033C10.579 6.13968 10.5 5.94891 10.5 5.75V4.25Z" fill="#212529"/>
<path fill-rule="evenodd" clip-rule="evenodd" d="M3 2C2.20435 2 1.44129 2.31607 0.87868 2.87868C0.316071 3.44129 0 4.20435 0 5L0 8C0 8.79565 0.316071 9.55871 0.87868 10.1213C1.44129 10.6839 2.20435 11 3 11H6C6.79565 11 7.55871 10.6839 8.12132 10.1213C8.68393 9.55871 9 8.79565 9 8V5C9 4.20435 8.68393 3.44129 8.12132 2.87868C7.55871 2.31607 6.79565 2 6 2H3ZM3 14C2.20435 14 1.44129 14.3161 0.87868 14.8787C0.316071 15.4413 0 16.2044 0 17L0 20C0 20.7956 0.316071 21.5587 0.87868 22.1213C1.44129 22.6839 2.20435 23 3 23H6C6.79565 23 7.55871 22.6839 8.12132 22.1213C8.68393 21.5587 9 20.7956 9 20V17C9 16.2044 8.68393 15.4413 8.12132 14.8787C7.55871 14.3161 6.79565 14 6 14H3ZM4.281 8.531L7.281 5.531C7.35073 5.46127 7.40605 5.37848 7.44379 5.28737C7.48152 5.19627 7.50095 5.09862 7.50095 5C7.50095 4.90138 7.48152 4.80373 7.44379 4.71263C7.40605 4.62152 7.35073 4.53873 7.281 4.469C7.21127 4.39927 7.12848 4.34395 7.03738 4.30622C6.94627 4.26848 6.84862 4.24905 6.75 4.24905C6.65138 4.24905 6.55373 4.26848 6.46262 4.30622C6.37152 4.34395 6.28873 4.39927 6.219 4.469L3.75 6.9395L2.781 5.969C2.71127 5.89927 2.62848 5.84395 2.53737 5.80622C2.44627 5.76848 2.34862 5.74905 2.25 5.74905C2.15138 5.74905 2.05373 5.76848 1.96262 5.80622C1.87152 5.84395 1.78873 5.89927 1.719 5.969C1.64927 6.03873 1.59395 6.12152 1.55622 6.21263C1.51848 6.30373 1.49905 6.40138 1.49905 6.5C1.49905 6.59862 1.51848 6.69627 1.55622 6.78738C1.59395 6.87848 1.64927 6.96127 1.719 7.031L3.219 8.531C3.28867 8.60084 3.37143 8.65626 3.46255 8.69407C3.55367 8.73188 3.65135 8.75134 3.75 8.75134C3.84865 8.75134 3.94633 8.73188 4.03745 8.69407C4.12857 8.65626 4.21133 8.60084 4.281 8.531ZM4.281 20.531L7.281 17.531C7.42183 17.3902 7.50095 17.1992 7.50095 17C7.50095 16.8008 7.42183 16.6098 7.281 16.469C7.14017 16.3282 6.94916 16.2491 6.75 16.2491C6.55084 16.2491 6.35983 16.3282 6.219 16.469L3.75 18.9395L2.781 17.969C2.64017 17.8282 2.44916 17.7491 2.25 17.7491C2.05084 17.7491 1.85983 17.8282 1.719 17.969C1.57817 18.1098 1.49905 18.3008 1.49905 18.5C1.49905 18.6992 1.57817 18.8902 1.719 19.031L3.219 20.531C3.28867 20.6008 3.37143 20.6563 3.46255 20.6941C3.55367 20.7319 3.65135 20.7513 3.75 20.7513C3.84865 20.7513 3.94633 20.7319 4.03745 20.6941C4.12857 20.6563 4.21133 20.6008 4.281 20.531Z" fill="#212529"/>
<path d="M10.5 16.25C10.5 16.0511 10.579 15.8603 10.7197 15.7197C10.8603 15.579 11.0511 15.5 11.25 15.5H21.75C21.9489 15.5 22.1397 15.579 22.2803 15.7197C22.421 15.8603 22.5 16.0511 22.5 16.25V17.75C22.5 17.9489 22.421 18.1397 22.2803 18.2803C22.1397 18.421 21.9489 18.5 21.75 18.5H11.25C11.0511 18.5 10.8603 18.421 10.7197 18.2803C10.579 18.1397 10.5 17.9489 10.5 17.75V16.25Z" fill="#212529"/>
<path fill-rule="evenodd" clip-rule="evenodd" d="M10.5 8.75C10.5 8.55109 10.579 8.36032 10.7197 8.21967C10.8603 8.07902 11.0511 8 11.25 8H18.75C18.9489 8 19.1397 8.07902 19.2803 8.21967C19.421 8.36032 19.5 8.55109 19.5 8.75C19.5 8.94891 19.421 9.13968 19.2803 9.28033C19.1397 9.42098 18.9489 9.5 18.75 9.5H11.25C11.0511 9.5 10.8603 9.42098 10.7197 9.28033C10.579 9.13968 10.5 8.94891 10.5 8.75ZM10.5 20.75C10.5 20.5511 10.579 20.3603 10.7197 20.2197C10.8603 20.079 11.0511 20 11.25 20H18.75C18.9489 20 19.1397 20.079 19.2803 20.2197C19.421 20.3603 19.5 20.5511 19.5 20.75C19.5 20.9489 19.421 21.1397 19.2803 21.2803C19.1397 21.421 18.9489 21.5 18.75 21.5H11.25C11.0511 21.5 10.8603 21.421 10.7197 21.2803C10.579 21.1397 10.5 20.9489 10.5 20.75Z" fill="#212529"/>
</g>
<defs>
<clipPath id="clip0_979_633">
<rect width="24" height="24" fill="white" transform="translate(0 0.5)"/>
</clipPath>
</defs>
</svg>
