<svg width="32" height="33" viewBox="0 0 32 33" fill="none" xmlns="http://www.w3.org/2000/svg">
<path fill-rule="evenodd" clip-rule="evenodd" d="M4 27.5V14.5H6V27.5C6 27.7652 6.10536 28.0196 6.29289 28.2071C6.48043 28.3946 6.73478 28.5 7 28.5H25C25.2652 28.5 25.5196 28.3946 25.7071 28.2071C25.8946 28.0196 26 27.7652 26 27.5V14.5H28V27.5C28 28.2956 27.6839 29.0587 27.1213 29.6213C26.5587 30.1839 25.7956 30.5 25 30.5H7C6.20435 30.5 5.44129 30.1839 4.87868 29.6213C4.31607 29.0587 4 28.2956 4 27.5ZM26 5.5V12.5L22 8.5V5.5C22 5.23478 22.1054 4.98043 22.2929 4.79289C22.4804 4.60536 22.7348 4.5 23 4.5H25C25.2652 4.5 25.5196 4.60536 25.7071 4.79289C25.8946 4.98043 26 5.23478 26 5.5Z" fill="black"/>
<path fill-rule="evenodd" clip-rule="evenodd" d="M14.5873 3.49964C14.9623 3.12469 15.4709 2.91406 16.0013 2.91406C16.5316 2.91406 17.0402 3.12469 17.4153 3.49964L30.7093 16.7916C30.897 16.9794 31.0025 17.2341 31.0025 17.4996C31.0025 17.7652 30.897 18.0199 30.7093 18.2076C30.5215 18.3954 30.2668 18.5009 30.0013 18.5009C29.7357 18.5009 29.481 18.3954 29.2933 18.2076L16.0013 4.91364L2.70926 18.2076C2.52149 18.3954 2.26681 18.5009 2.00126 18.5009C1.73571 18.5009 1.48104 18.3954 1.29326 18.2076C1.10549 18.0199 1 17.7652 1 17.4996C1 17.2341 1.10549 16.9794 1.29326 16.7916L14.5873 3.49964Z" fill="black"/>
</svg>
