<svg xmlns="http://www.w3.org/2000/svg" width="33" height="33" fill="none" viewBox="0 0 33 33"><g clip-path="url(#clip0_297_144)"><path fill="#000" fill-rule="evenodd" d="M12.219 1.39238C12.2243 1.65755 12.124 1.91394 11.9402 2.10516C11.7564 2.29637 11.5042 2.40675 11.2391 2.41201L6.24004 2.51112C5.70971 2.52164 5.20528 2.74239 4.83772 3.12483C4.47015 3.50726 4.26957 4.02005 4.28008 4.55037L4.75583 28.5457C4.76634 29.076 4.9871 29.5804 5.36953 29.948C5.75197 30.3155 6.26475 30.5161 6.79508 30.5056L11.7941 30.4065C12.0593 30.4012 12.3157 30.5015 12.5069 30.6853C12.6981 30.8691 12.8085 31.1213 12.8137 31.3865C12.819 31.6517 12.7187 31.908 12.5349 32.0993C12.3511 32.2905 12.0989 32.4009 11.8337 32.4061L6.83473 32.5052C5.77407 32.5263 4.7485 32.1251 3.98363 31.39C3.21876 30.6548 2.77725 29.646 2.75622 28.5853L2.28048 4.59002C2.25945 3.52936 2.66062 2.50379 3.39575 1.73892C4.13088 0.974057 5.13974 0.532544 6.2004 0.511515L11.1994 0.412401C11.4646 0.407144 11.721 0.507438 11.9122 0.69122C12.1034 0.875002 12.2138 1.12722 12.219 1.39238Z" clip-rule="evenodd"/><path fill="#000" fill-rule="evenodd" d="M30.0068 15.3359C30.1018 15.427 30.1778 15.5358 30.2306 15.6563C30.2834 15.7768 30.312 15.9065 30.3146 16.038C30.3172 16.1695 30.2938 16.3002 30.2458 16.4227C30.1978 16.5451 30.1261 16.6569 30.0349 16.7517L24.155 22.8694C23.971 23.0609 23.7184 23.1714 23.4529 23.1767C23.1874 23.1819 22.9307 23.0815 22.7393 22.8975C22.5478 22.7135 22.4373 22.4609 22.432 22.1954C22.4268 21.9299 22.5272 21.6732 22.7112 21.4818L26.9193 17.1055L9.33673 17.4541C9.07156 17.4593 8.81517 17.3591 8.62395 17.1753C8.43274 16.9915 8.32236 16.7393 8.3171 16.4741C8.31185 16.2089 8.41214 15.9526 8.59592 15.7613C8.7797 15.5701 9.03192 15.4597 9.29708 15.4545L26.8796 15.1059L22.5014 10.8998C22.4066 10.8087 22.3307 10.6998 22.2779 10.5794C22.2252 10.4589 22.1968 10.3293 22.1942 10.1978C22.1915 10.0663 22.2149 9.93565 22.2628 9.81319C22.3107 9.69074 22.3822 9.57892 22.4733 9.48412C22.5644 9.38932 22.6733 9.31339 22.7938 9.26068C22.9142 9.20796 23.0439 9.17949 23.1754 9.17688C23.3068 9.17427 23.4375 9.19759 23.56 9.24549C23.6824 9.29339 23.7942 9.36494 23.889 9.45605L30.0068 15.3359Z" clip-rule="evenodd"/></g><defs><clipPath id="clip0_297_144"><rect width="32" height="32" fill="#fff" transform="translate(31.9951) rotate(88.8642)"/></clipPath></defs></svg>