<svg width="32" height="32" viewBox="0 0 32 32" fill="none" xmlns="http://www.w3.org/2000/svg">
<g clip-path="url(#clip0_297_131)">
<path d="M14 5C14 4.73478 14.1054 4.48043 14.2929 4.29289C14.4804 4.10536 14.7348 4 15 4H29C29.2652 4 29.5196 4.10536 29.7071 4.29289C29.8946 4.48043 30 4.73478 30 5V7C30 7.26522 29.8946 7.51957 29.7071 7.70711C29.5196 7.89464 29.2652 8 29 8H15C14.7348 8 14.4804 7.89464 14.2929 7.70711C14.1054 7.51957 14 7.26522 14 7V5Z" fill="black"/>
<path fill-rule="evenodd" clip-rule="evenodd" d="M4 2C2.93913 2 1.92172 2.42143 1.17157 3.17157C0.421427 3.92172 0 4.93913 0 6L0 10C0 11.0609 0.421427 12.0783 1.17157 12.8284C1.92172 13.5786 2.93913 14 4 14H8C9.06087 14 10.0783 13.5786 10.8284 12.8284C11.5786 12.0783 12 11.0609 12 10V6C12 4.93913 11.5786 3.92172 10.8284 3.17157C10.0783 2.42143 9.06087 2 8 2H4ZM4 18C2.93913 18 1.92172 18.4214 1.17157 19.1716C0.421427 19.9217 0 20.9391 0 22L0 26C0 27.0609 0.421427 28.0783 1.17157 28.8284C1.92172 29.5786 2.93913 30 4 30H8C9.06087 30 10.0783 29.5786 10.8284 28.8284C11.5786 28.0783 12 27.0609 12 26V22C12 20.9391 11.5786 19.9217 10.8284 19.1716C10.0783 18.4214 9.06087 18 8 18H4ZM5.708 10.708L9.708 6.708C9.80098 6.61502 9.87473 6.50465 9.92505 6.38317C9.97536 6.26169 10.0013 6.13149 10.0013 6C10.0013 5.86851 9.97536 5.73831 9.92505 5.61683C9.87473 5.49535 9.80098 5.38498 9.708 5.292C9.61502 5.19902 9.50465 5.12527 9.38317 5.07495C9.26169 5.02464 9.13149 4.99874 9 4.99874C8.86851 4.99874 8.73831 5.02464 8.61683 5.07495C8.49535 5.12527 8.38498 5.19902 8.292 5.292L5 8.586L3.708 7.292C3.61502 7.19902 3.50465 7.12527 3.38317 7.07495C3.26169 7.02464 3.13149 6.99874 3 6.99874C2.86851 6.99874 2.73831 7.02464 2.61683 7.07495C2.49535 7.12527 2.38498 7.19902 2.292 7.292C2.19902 7.38498 2.12527 7.49535 2.07495 7.61683C2.02464 7.73831 1.99874 7.86851 1.99874 8C1.99874 8.13149 2.02464 8.26169 2.07495 8.38317C2.12527 8.50465 2.19902 8.61502 2.292 8.708L4.292 10.708C4.38489 10.8011 4.49524 10.875 4.61673 10.9254C4.73822 10.9758 4.86847 11.0018 5 11.0018C5.13153 11.0018 5.26178 10.9758 5.38327 10.9254C5.50476 10.875 5.61511 10.8011 5.708 10.708ZM5.708 26.708L9.708 22.708C9.89577 22.5202 10.0013 22.2656 10.0013 22C10.0013 21.7344 9.89577 21.4798 9.708 21.292C9.52023 21.1042 9.26555 20.9987 9 20.9987C8.73445 20.9987 8.47977 21.1042 8.292 21.292L5 24.586L3.708 23.292C3.52023 23.1042 3.26555 22.9987 3 22.9987C2.73445 22.9987 2.47977 23.1042 2.292 23.292C2.10423 23.4798 1.99874 23.7344 1.99874 24C1.99874 24.2656 2.10423 24.5202 2.292 24.708L4.292 26.708C4.38489 26.8011 4.49524 26.875 4.61673 26.9254C4.73822 26.9758 4.86847 27.0018 5 27.0018C5.13153 27.0018 5.26178 26.9758 5.38327 26.9254C5.50476 26.875 5.61511 26.8011 5.708 26.708Z" fill="black"/>
<path d="M14 21C14 20.7348 14.1054 20.4804 14.2929 20.2929C14.4804 20.1054 14.7348 20 15 20H29C29.2652 20 29.5196 20.1054 29.7071 20.2929C29.8946 20.4804 30 20.7348 30 21V23C30 23.2652 29.8946 23.5196 29.7071 23.7071C29.5196 23.8946 29.2652 24 29 24H15C14.7348 24 14.4804 23.8946 14.2929 23.7071C14.1054 23.5196 14 23.2652 14 23V21Z" fill="black"/>
<path fill-rule="evenodd" clip-rule="evenodd" d="M14 11C14 10.7348 14.1054 10.4804 14.2929 10.2929C14.4804 10.1054 14.7348 10 15 10H25C25.2652 10 25.5196 10.1054 25.7071 10.2929C25.8946 10.4804 26 10.7348 26 11C26 11.2652 25.8946 11.5196 25.7071 11.7071C25.5196 11.8946 25.2652 12 25 12H15C14.7348 12 14.4804 11.8946 14.2929 11.7071C14.1054 11.5196 14 11.2652 14 11ZM14 27C14 26.7348 14.1054 26.4804 14.2929 26.2929C14.4804 26.1054 14.7348 26 15 26H25C25.2652 26 25.5196 26.1054 25.7071 26.2929C25.8946 26.4804 26 26.7348 26 27C26 27.2652 25.8946 27.5196 25.7071 27.7071C25.5196 27.8946 25.2652 28 25 28H15C14.7348 28 14.4804 27.8946 14.2929 27.7071C14.1054 27.5196 14 27.2652 14 27Z" fill="black"/>
</g>
<defs>
<clipPath id="clip0_297_131">
<rect width="32" height="32" fill="white"/>
</clipPath>
</defs>
</svg>
