<svg width="60" height="60" viewBox="0 0 60 60" fill="none" xmlns="http://www.w3.org/2000/svg">
<g clip-path="url(#clip0_276_80)">
<path d="M60 30C60 13.4327 46.5673 0 30 0C13.4327 0 0 13.4327 0 30C0 44.9726 10.9689 57.3843 25.3129 59.6372V38.6739H17.6937V30H25.3129V23.3891C25.3129 15.8712 29.7933 11.7157 36.6446 11.7157C39.9269 11.7157 43.361 12.3021 43.361 12.3021V19.685H39.5767C35.8515 19.685 34.6871 21.9969 34.6871 24.3721V30H43.0066L41.6777 38.6739H34.6871V59.6372C49.0311 57.3886 60 44.9768 60 30Z" fill="#1977F3"/>
<path d="M41.6778 38.6741L43.0067 30.0002H34.6872V24.3723C34.6872 22.0013 35.8474 19.6852 39.5768 19.6852H43.3611V12.3022C43.3611 12.3022 39.927 11.7158 36.6448 11.7158C29.7934 11.7158 25.313 15.8671 25.313 23.3893V30.0002H17.6938V38.6741H25.313V59.6374C26.8402 59.8778 28.4054 60.0002 30.0001 60.0002C31.5948 60.0002 33.16 59.8736 34.6872 59.6374V38.6741H41.6778Z" fill="#FEFEFE"/>
</g>
<defs>
<clipPath id="clip0_276_80">
<rect width="60" height="60" fill="white"/>
</clipPath>
</defs>
</svg>
